<?xml version="1.0" ?><svg xmlns="http://www.w3.org/2000/svg" xmlns:xlink="http://www.w3.org/1999/xlink" version="1.1" viewBox="0 0 32 32" style="enable-background:new 0 0 32 32;" xml:space="preserve"><style type="text/css">
	.st0{fill:#384970;}
</style><g id="Guides"/><g id="Icons"><path class="st0" d="M25,4H7C4.24,4,2,6.24,2,9v12c0,2.76,2.24,5,5,5h4c0.31,0,0.61,0.15,0.8,0.4l1.8,2.4   c0.56,0.75,1.46,1.2,2.4,1.2c0.94,0,1.84-0.45,2.4-1.2l1.8-2.4c0.19-0.25,0.49-0.4,0.8-0.4h4c2.76,0,5-2.24,5-5V9   C30,6.24,27.76,4,25,4z M28,21c0,1.65-1.35,3-3,3h-4c-0.94,0-1.84,0.45-2.4,1.2l-1.8,2.4c-0.38,0.5-1.22,0.5-1.6,0l-1.8-2.4   C12.84,24.45,11.94,24,11,24H7c-1.65,0-3-1.35-3-3V9c0-1.65,1.35-3,3-3h18c1.65,0,3,1.35,3,3V21z"/><path class="st0" d="M18.6,12.01c-1.1-0.11-2.08,0.41-2.6,1.22c-0.52-0.81-1.5-1.33-2.6-1.22c-1.39,0.14-2.4,1.31-2.4,2.63   c0,0.64,0.25,1.25,0.71,1.72l3,3.1C15.04,19.81,15.51,20,16,20s0.96-0.19,1.29-0.54l3-3.1C20.75,15.9,21,15.28,21,14.64   C21,13.33,19.98,12.15,18.6,12.01z"/></g></svg>